<?xml version="1.0" standalone="no"?><!DOCTYPE svg PUBLIC "-//W3C//DTD SVG 1.1//EN" "http://www.w3.org/Graphics/SVG/1.1/DTD/svg11.dtd"><svg t="1575007995110" class="icon" viewBox="0 0 1024 1024" version="1.1" xmlns="http://www.w3.org/2000/svg" p-id="3822" xmlns:xlink="http://www.w3.org/1999/xlink" width="200" height="200"><defs><style type="text/css"></style></defs><path d="M482.048011 0l64 0 0 533.333333-64 0 0-533.333333Z" p-id="3823"></path><path d="M695.381344 132.864l0 54.186667c128 69.845333 225.493333 208.618667 225.493333 368.469333 0 230.08-184.938667 416.64-415.018667 416.64-230.122667 0-406.016-186.56-406.016-416.64C99.840011 395.669333 183.381344 256.896 332.714677 187.050667l0-54.186667C162.048011 206.528 52.074677 368 52.074677 555.52c0 256.96 203.370667 465.258667 460.330667 465.258667 256.938667 0 459.52-208.298667 459.52-465.258667C971.925344 368 866.048011 206.528 695.381344 132.864z" p-id="3824"></path></svg>