<?xml version="1.0" standalone="no"?><!DOCTYPE svg PUBLIC "-//W3C//DTD SVG 1.1//EN" "http://www.w3.org/Graphics/SVG/1.1/DTD/svg11.dtd"><svg t="1575007978991" class="icon" viewBox="0 0 1024 1024" version="1.1" xmlns="http://www.w3.org/2000/svg" p-id="3356" xmlns:xlink="http://www.w3.org/1999/xlink" width="200" height="200"><defs><style type="text/css"></style></defs><path d="M972.8 224c-153.6 147.2-307.2 307.2-454.4 460.8l-12.8 12.8c-64 102.4-172.8 115.2-275.2 147.2-19.2 6.4-51.2-32-44.8-51.2 19.2-64 32-128 51.2-185.6 6.4-12.8 12.8-19.2 19.2-25.6C396.8 448 544 307.2 684.8 172.8c32-32 64-70.4 96-108.8 44.8-51.2 102.4-51.2 147.2-6.4 32 25.6 128 89.6 44.8 166.4z m-230.4-12.8L326.4 627.2l70.4 70.4c140.8-134.4 281.6-275.2 416-409.6-25.6-25.6-51.2-51.2-70.4-76.8z m32-57.6c32 32 64 64 102.4 96 6.4-6.4 25.6-19.2 32-32 57.6-64 51.2-57.6-12.8-121.6l-6.4-6.4c-19.2-12.8-32-12.8-51.2 0l-64 64zM256 774.4c32-12.8 57.6-25.6 76.8-32-12.8-19.2-25.6-38.4-44.8-57.6-12.8 32-19.2 57.6-32 89.6z" fill="" p-id="3357"></path><path d="M460.8 998.4H185.6c-51.2 0-96-12.8-128-57.6-19.2-25.6-25.6-57.6-25.6-89.6V300.8c0-96 64-160 160-160h300.8c19.2 0 44.8 0 44.8 32-6.4 19.2-25.6 32-57.6 32H192c-70.4 0-108.8 38.4-108.8 108.8v531.2c0 57.6 38.4 96 89.6 96h569.6c44.8 0 76.8-32 76.8-83.2V492.8v-25.6c6.4-12.8 19.2-25.6 32-25.6s19.2 19.2 25.6 32V851.2c0 102.4-44.8 147.2-147.2 147.2H460.8z" fill="" p-id="3358"></path></svg>