<?xml version="1.0" standalone="no"?><!DOCTYPE svg PUBLIC "-//W3C//DTD SVG 1.1//EN" "http://www.w3.org/Graphics/SVG/1.1/DTD/svg11.dtd"><svg t="1575007947559" class="icon" viewBox="0 0 1024 1024" version="1.1" xmlns="http://www.w3.org/2000/svg" p-id="2435" xmlns:xlink="http://www.w3.org/1999/xlink" width="200" height="200"><defs><style type="text/css"></style></defs><path d="M814.4 376h-64v-84.8c0-140.8-115.2-254.4-254.4-254.4S240 150.4 240 291.2V376h-64c-35.2 0-64 28.8-64 64v467.2c0 35.2 28.8 64 64 64h638.4c35.2 0 64-28.8 64-64V440c0-35.2-28.8-64-64-64zM304 291.2c0-105.6 86.4-192 192-192s192 86.4 192 192V376H304v-84.8z m510.4 616H177.6V440H816v467.2h-1.6z" p-id="2436"></path><path d="M496 790.4c17.6 0 32-14.4 32-32V588.8c0-17.6-14.4-32-32-32s-32 14.4-32 32v169.6c0 17.6 14.4 32 32 32z" p-id="2437"></path></svg>